<svg width="16" height="15" viewBox="0 0 16 15" fill="none" xmlns="http://www.w3.org/2000/svg">
<path d="M7.34819 13.2368L7.34712 13.2358C5.27217 11.3316 3.61039 9.80461 2.45832 8.3791C1.31512 6.96457 0.75 5.7399 0.75 4.45309C0.75 2.36507 2.35867 0.75 4.4 0.75C5.56153 0.75 6.69064 1.30094 7.42612 2.17504L8 2.85709L8.57388 2.17504C9.30936 1.30094 10.4385 0.75 11.6 0.75C13.6413 0.75 15.25 2.36507 15.25 4.45309C15.25 5.73991 14.6849 6.96461 13.5415 8.38031C12.3894 9.80687 10.7277 11.3357 8.6529 13.2439C8.6527 13.2441 8.6525 13.2443 8.6523 13.2445L8.00193 13.8391L7.34819 13.2368Z" fill="#AE7D67" stroke="#AE7D67" stroke-width="1.5"/>
</svg>
