<svg width="103" height="28" viewBox="0 0 103 28" fill="none" xmlns="http://www.w3.org/2000/svg">
<g clip-path="url(#clip0)">
<path d="M29.5758 17.0908L15.6724 17.1315C15.3267 17.101 14.981 17.101 14.6354 17.1366L0.762451 17.1772V22.1743C0.767535 22.6979 1.07255 23.2165 1.68257 23.3995L13.6644 27.0138C14.6506 27.3087 15.6978 27.3087 16.684 27.0138L28.6659 23.3995C29.2505 23.2215 29.5504 22.7386 29.5809 22.2404L29.5758 17.0908Z" fill="white"/>
<path d="M15.1743 28C14.5897 28 14.0102 27.9136 13.4459 27.7459L1.46405 24.1315C0.584604 23.8671 0.010167 23.0995 0 22.1794V16.4198L14.6049 16.3791C14.971 16.3486 15.342 16.3486 15.7081 16.374L30.3435 16.3334V22.2455C30.2876 23.1605 29.7182 23.8824 28.8845 24.1366L16.9027 27.7509C16.3384 27.9187 15.7538 28 15.1743 28ZM1.52505 17.9398V22.1743C1.52505 22.2862 1.56572 22.5708 1.90632 22.6725L13.8882 26.2869C14.732 26.5411 15.6216 26.5411 16.4655 26.2869L28.4473 22.6725C28.7524 22.581 28.8134 22.337 28.8235 22.1997V17.8635L15.6471 17.894L15.6115 17.8889C15.3166 17.8635 15.0116 17.8635 14.7117 17.894L14.6456 17.8991L1.52505 17.9398Z" fill="#503326"/>
<path d="M29.5758 11.3718L15.6724 11.4125C15.3267 11.382 14.981 11.382 14.6354 11.4176L0.762451 11.4582V16.4553C0.767535 16.9789 1.07255 17.4975 1.68257 17.6805L13.6644 21.2948C14.6506 21.5897 15.6978 21.5897 16.684 21.2948L28.6659 17.6805C29.2505 17.5025 29.5504 17.0196 29.5809 16.5214L29.5758 11.3718Z" fill="white"/>
<path d="M15.1743 22.281C14.5897 22.281 14.0102 22.1946 13.4459 22.0268L1.46405 18.4124C0.584604 18.1481 0.010167 17.3805 0 16.4604V10.6957L14.6049 10.655C14.971 10.6245 15.342 10.6194 15.7081 10.6499L30.3435 10.6093V16.5214C30.2876 17.4364 29.7182 18.1583 28.8845 18.4124L16.9027 22.0268C16.3384 22.1946 15.7538 22.281 15.1743 22.281ZM1.52505 12.2207V16.4553C1.52505 16.5671 1.56572 16.8518 1.90632 16.9535L13.8882 20.5679C14.732 20.822 15.6216 20.822 16.4655 20.5679L28.4473 16.9535C28.7524 16.862 28.8134 16.618 28.8235 16.4807V12.1445L15.6521 12.1851L15.6166 12.1801C15.3217 12.1546 15.0167 12.1546 14.7168 12.1851L14.6507 12.1902L1.52505 12.2207Z" fill="#503326"/>
<path d="M46.4124 9.26222L44.7653 11.4583C44.7399 11.4329 44.6535 11.3719 44.5112 11.2753C44.3637 11.1787 44.1757 11.0821 43.9418 10.9804C43.708 10.8839 43.4436 10.7924 43.1386 10.7059C42.8336 10.6195 42.5235 10.5788 42.2032 10.5788C41.7864 10.5788 41.3797 10.6754 40.9781 10.8737C40.5765 11.0669 40.3732 11.4329 40.3732 11.9717C40.3732 12.4343 40.5359 12.8156 40.8663 13.1054C41.1967 13.3951 41.6034 13.6595 42.0914 13.8933C42.5794 14.1271 43.1081 14.361 43.6826 14.605C44.257 14.849 44.7857 15.1489 45.2737 15.4997C45.7617 15.8555 46.1684 16.2927 46.4988 16.8163C46.8293 17.3399 46.9919 18.0059 46.9919 18.8091C46.9919 20.1765 46.5242 21.3051 45.5838 22.1947C44.6433 23.0843 43.3572 23.5316 41.7203 23.5316C40.7697 23.5316 39.8343 23.369 38.9193 23.0385C38.0043 22.7081 37.2672 22.2252 36.7029 21.5948C36.8706 21.422 37.0638 21.2034 37.2722 20.934C37.4807 20.6645 37.6891 20.4104 37.8924 20.1664C38.1009 19.9223 38.2686 19.719 38.4059 19.5614C38.538 19.4038 38.6194 19.3225 38.6448 19.3225C38.6448 19.3479 38.7363 19.4191 38.9193 19.5411C39.1023 19.6631 39.3412 19.7902 39.631 19.9274C39.9258 20.0596 40.2512 20.1816 40.6172 20.2934C40.9832 20.4053 41.3492 20.4561 41.7152 20.4561C42.2998 20.4561 42.8031 20.3087 43.2149 20.0189C43.6317 19.7241 43.8351 19.3377 43.8351 18.8497C43.8351 18.4125 43.6724 18.0618 43.342 17.8076C43.0115 17.5534 42.6048 17.3145 42.1168 17.0959C41.6288 16.8773 41.09 16.6486 40.5054 16.4198C39.9207 16.186 39.3819 15.8911 38.8939 15.5251C38.4059 15.1591 37.9992 14.7016 37.6688 14.1526C37.3383 13.6035 37.1756 12.8918 37.1756 12.0124C37.1756 11.1838 37.3282 10.4873 37.6332 9.92816C37.9382 9.36897 38.3296 8.91145 38.8024 8.55561C39.2802 8.19976 39.8089 7.94559 40.3935 7.788C40.9781 7.63041 41.5424 7.54907 42.0762 7.54907C42.7828 7.54907 43.5402 7.69649 44.3434 7.98625C45.1669 8.27093 45.8532 8.69795 46.4124 9.26222Z" fill="#503326"/>
<path d="M49.925 2.04866C49.925 1.46405 50.1386 0.976035 50.5656 0.584604C50.9926 0.193174 51.4501 0 51.9381 0C52.4261 0 52.8786 0.193174 53.2903 0.584604C53.7072 0.976035 53.9105 1.46405 53.9105 2.04866C53.9105 2.63326 53.7021 3.11619 53.2903 3.49237C52.8735 3.86855 52.4261 4.06173 51.9381 4.06173C51.4501 4.06173 50.9926 3.87364 50.5656 3.49237C50.1386 3.11619 49.925 2.63326 49.925 2.04866ZM53.4428 23.2062H50.3317V7.90487H53.4428V23.2062Z" fill="#503326"/>
<path d="M66.2481 11.5294C65.5669 11.5294 64.9061 11.6209 64.2706 11.8039C63.6352 11.9869 63.0709 12.2614 62.5677 12.6274C62.0695 12.9934 61.673 13.4509 61.3781 13.9999C61.0833 14.549 60.9409 15.1793 60.9409 15.8859V23.2062H57.8298V7.90481H60.5749C60.6258 8.66226 60.6664 9.34853 60.702 9.97381C60.7376 10.594 60.7834 11.2142 60.8291 11.8242C61.1443 11.1633 61.5611 10.5686 62.0746 10.0297C62.588 9.49087 63.137 9.04352 63.7216 8.67751C64.3062 8.3115 64.8807 8.02682 65.4398 7.8184C65.999 7.60997 66.5023 7.5083 66.9395 7.5083L66.2481 11.5294Z" fill="#503326"/>
<path d="M67.8599 15.5199C67.8599 14.4219 68.0734 13.3848 68.5004 12.4088C68.9274 11.4328 69.5069 10.5838 70.2389 9.86705C70.971 9.14519 71.8301 8.57584 72.8214 8.14882C73.8076 7.72181 74.8751 7.5083 76.024 7.5083C77.1729 7.5083 78.2404 7.72181 79.2266 8.14882C80.2128 8.57584 81.0668 9.15028 81.7887 9.86705C82.5105 10.5889 83.0697 11.4328 83.4713 12.4088C83.8729 13.3848 84.0763 14.4219 84.0763 15.5199C84.0763 16.618 83.8729 17.655 83.4713 18.631C83.0697 19.6071 82.5055 20.4611 81.7887 21.1931C81.0668 21.9251 80.2128 22.5047 79.2266 22.9317C78.2404 23.3587 77.1576 23.5722 75.9884 23.5722C74.8649 23.5722 73.8127 23.379 72.8214 22.9876C71.8352 22.5962 70.971 22.0471 70.2389 21.3405C69.5069 20.6339 68.9274 19.785 68.5004 18.7988C68.0734 17.8075 67.8599 16.7145 67.8599 15.5199ZM70.971 15.5555C70.971 16.2367 71.0981 16.8772 71.3573 17.4771C71.6115 18.0769 71.9673 18.6005 72.4198 19.053C72.8722 19.5054 73.3958 19.8562 73.9957 20.1154C74.5955 20.3696 75.236 20.5018 75.9172 20.5018C76.5984 20.5018 77.2491 20.3747 77.8591 20.1154C78.4692 19.8612 78.9978 19.5054 79.4503 19.053C79.9027 18.6005 80.2636 18.0769 80.528 17.4771C80.7974 16.8772 80.9296 16.2367 80.9296 15.5555C80.9296 14.8743 80.7974 14.2236 80.528 13.6136C80.2586 13.0036 79.8976 12.4749 79.4503 12.0225C78.9978 11.57 78.4692 11.2193 77.8591 10.96C77.2491 10.7058 76.6035 10.5737 75.9172 10.5737C75.236 10.5737 74.5955 10.7007 73.9957 10.96C73.3958 11.2142 72.8722 11.57 72.4198 12.0225C71.9673 12.4749 71.6166 13.0036 71.3573 13.6136C71.0981 14.2236 70.971 14.8743 70.971 15.5555Z" fill="#503326"/>
<path d="M86.3435 15.5199C86.3435 14.4219 86.557 13.3848 86.984 12.4088C87.411 11.4328 87.9906 10.5838 88.7226 9.86705C89.4546 9.14519 90.3137 8.57584 91.305 8.14882C92.2912 7.72181 93.3588 7.5083 94.5076 7.5083C95.6565 7.5083 96.724 7.72181 97.7102 8.14882C98.6965 8.57584 99.5505 9.15028 100.272 9.86705C100.994 10.5889 101.553 11.4328 101.955 12.4088C102.357 13.3848 102.56 14.4219 102.56 15.5199C102.56 16.618 102.357 17.655 101.955 18.631C101.553 19.6071 100.989 20.4611 100.272 21.1931C99.5505 21.9251 98.6965 22.5047 97.7102 22.9317C96.724 23.3587 95.6413 23.5722 94.472 23.5722C93.3486 23.5722 92.2963 23.379 91.305 22.9876C90.3188 22.5962 89.4546 22.0471 88.7226 21.3405C87.9906 20.6339 87.411 19.785 86.984 18.7988C86.557 17.8075 86.3435 16.7145 86.3435 15.5199ZM89.4546 15.5555C89.4546 16.2367 89.5817 16.8772 89.841 17.4771C90.0951 18.0769 90.451 18.6005 90.9034 19.053C91.3559 19.5054 91.8795 19.8562 92.4793 20.1154C93.0792 20.3696 93.7197 20.5018 94.4009 20.5018C95.0821 20.5018 95.7328 20.3747 96.3428 20.1154C96.9528 19.8612 97.4815 19.5054 97.9339 19.053C98.3864 18.6005 98.7473 18.0769 99.0116 17.4771C99.2811 16.8772 99.4132 16.2367 99.4132 15.5555C99.4132 14.8743 99.2811 14.2236 99.0116 13.6136C98.7422 13.0036 98.3813 12.4749 97.9339 12.0225C97.4815 11.57 96.9528 11.2193 96.3428 10.96C95.7328 10.7058 95.0872 10.5737 94.4009 10.5737C93.7197 10.5737 93.0792 10.7007 92.4793 10.96C91.8795 11.2142 91.3559 11.57 90.9034 12.0225C90.451 12.4749 90.1002 13.0036 89.841 13.6136C89.5817 14.2236 89.4546 14.8743 89.4546 15.5555Z" fill="#503326"/>
<path d="M13.6645 15.8657L1.68267 12.2513C0.452457 11.8803 0.452457 10.1417 1.68267 9.77059L13.4917 6.20705C14.5846 5.87662 15.7538 5.87662 16.8468 6.20705L28.6558 9.77059C29.886 10.1417 29.886 11.8803 28.6558 12.2513L16.674 15.8657C15.6979 16.1606 14.6456 16.1606 13.6645 15.8657Z" fill="#503326"/>
<path d="M15.1743 16.8468C14.5948 16.8468 14.0102 16.7604 13.4459 16.5926L1.46405 12.9782C0.574437 12.7088 0 11.9361 0 11.0058C0 10.0755 0.574437 9.30285 1.46405 9.03342L13.2731 5.46988C14.5134 5.0937 15.8301 5.0937 17.0704 5.46988L28.8794 9.03342C29.7691 9.30285 30.3435 10.0755 30.3435 11.0058C30.3435 11.9361 29.7691 12.7088 28.8794 12.9782L16.8976 16.5926C16.3384 16.7654 15.7538 16.8468 15.1743 16.8468ZM15.1743 6.72042C14.6863 6.72042 14.1932 6.79159 13.7153 6.93393L1.90632 10.4975C1.55047 10.6042 1.52505 10.9143 1.52505 11.0109C1.52505 11.1075 1.55047 11.4176 1.90632 11.5193L13.8882 15.1336C14.732 15.3878 15.6216 15.3878 16.4655 15.1336L28.4473 11.5193C28.7981 11.4125 28.8286 11.1024 28.8286 11.0109C28.8286 10.9194 28.8032 10.6042 28.4473 10.5026L16.6383 6.93901C16.1554 6.79159 15.6623 6.72042 15.1743 6.72042Z" fill="#503326"/>
</g>
<defs>
<clipPath id="clip0">
<rect width="102.56" height="28" fill="white"/>
</clipPath>
</defs>
</svg>
