<svg width="332" height="148" viewBox="0 0 332 148" fill="none" xmlns="http://www.w3.org/2000/svg">
<ellipse cx="166" cy="99" rx="166" ry="49" fill="#F3F3EE"/>
<g clip-path="url(#clip0)">
<path d="M202.742 94.521L160.257 94.6458C159.201 94.5522 158.145 94.5522 157.088 94.6614L114.681 94.7862V110.122C114.697 111.728 115.629 113.32 117.493 113.881L154.106 124.973C157.119 125.878 160.319 125.878 163.333 124.973L199.946 113.881C201.732 113.335 202.649 111.853 202.742 110.324V94.521Z" fill="white"/>
<path d="M158.719 128C156.948 128 155.162 127.735 153.438 127.22L116.825 116.128C114.137 115.317 112.382 112.961 112.351 110.137V92.4461L156.979 92.3213C158.098 92.2277 159.232 92.2121 160.35 92.3057L205.072 92.1809V110.324C204.901 113.133 203.161 115.348 200.614 116.128L164.001 127.22C162.277 127.735 160.49 128 158.719 128ZM117.011 97.1107V110.106C117.011 110.449 117.135 111.323 118.176 111.635L154.789 122.727C157.368 123.507 160.086 123.507 162.665 122.727L199.278 111.635C200.21 111.354 200.396 110.605 200.427 110.184V96.8767L160.179 97.0015L160.071 96.9859C159.17 96.9079 158.238 96.9079 157.321 97.0015L157.119 97.0171L117.011 97.1107Z" fill="#503326"/>
<path d="M202.742 76.9702L160.257 77.095C159.201 77.0014 158.145 77.0014 157.088 77.1106L114.681 77.2354V92.5708C114.697 94.1777 115.629 95.769 117.493 96.3306L154.106 107.423C157.119 108.327 160.319 108.327 163.333 107.423L199.946 96.3306C201.732 95.7846 202.649 94.3025 202.742 92.7737V76.9702Z" fill="white"/>
<path d="M158.719 110.434C156.948 110.434 155.162 110.168 153.438 109.654L116.825 98.5615C114.137 97.7503 112.382 95.3946 112.351 92.5709V74.8953L156.979 74.7705C158.098 74.6769 159.232 74.6613 160.35 74.7549L205.072 74.6301V92.7737C204.901 95.5818 203.161 97.7971 200.614 98.5771L164.001 109.669C162.277 110.184 160.49 110.434 158.719 110.434ZM117.011 79.5599V92.5552C117.011 92.8985 117.135 93.7721 118.176 94.0841L154.789 105.176C157.368 105.956 160.086 105.956 162.665 105.176L199.278 94.0841C200.21 93.8033 200.396 93.0545 200.427 92.6333V79.3259L160.179 79.4507L160.071 79.4351C159.154 79.3571 158.238 79.3571 157.321 79.4507L157.119 79.4663L117.011 79.5599Z" fill="#503326"/>
<path d="M154.106 90.7457L117.493 79.6537C113.734 78.5148 113.734 73.1794 117.493 72.0406L153.578 61.1045C156.917 60.0905 160.49 60.0905 163.83 61.1045L199.93 72.0406C203.689 73.1794 203.689 78.5148 199.93 79.6537L163.317 90.7457C160.319 91.6505 157.119 91.6505 154.106 90.7457Z" fill="#503326"/>
<path d="M158.719 93.7722C156.933 93.7722 155.162 93.507 153.438 92.9922L116.825 81.9001C114.106 81.0733 112.351 78.702 112.351 75.8471C112.351 72.9922 114.106 70.6209 116.825 69.7941L152.91 58.858C156.7 57.7036 160.723 57.7036 164.513 58.858L200.598 69.7941C203.317 70.6209 205.072 72.9922 205.072 75.8471C205.072 78.702 203.317 81.0733 200.598 81.9001L163.985 92.9922C162.276 93.507 160.49 93.7722 158.719 93.7722ZM158.719 62.6802C157.228 62.6802 155.721 62.8986 154.261 63.3354L118.176 74.2714C117.104 74.5991 117.011 75.5507 117.011 75.8315C117.011 76.1123 117.089 77.0796 118.176 77.3916L154.789 88.4836C157.368 89.2636 160.086 89.2636 162.665 88.4836L199.278 77.3916C200.35 77.064 200.443 76.1123 200.443 75.8315C200.443 75.5507 200.365 74.5991 199.278 74.2714L163.177 63.351C161.717 62.8986 160.211 62.6802 158.719 62.6802Z" fill="#503326"/>
<path d="M158.844 85.0048C163.333 85.0048 166.968 81.3543 166.968 76.8457H150.704C150.704 81.3543 154.339 85.0048 158.844 85.0048Z" fill="white"/>
<path d="M201.996 85.1139C201.996 85.1139 212.124 79.5444 214.718 65.6443L201.996 85.1139Z" fill="white"/>
<path d="M203.115 87.1732L200.862 83.0702C201.235 82.8674 210.074 77.7816 212.419 65.2075L217.002 66.0656C214.237 80.9017 203.565 86.9236 203.115 87.1732Z" fill="#503326"/>
<path d="M113.967 85.3324C113.967 85.3324 103.699 80.0282 100.747 66.1904L113.967 85.3324Z" fill="white"/>
<path d="M112.91 87.4072C112.444 87.1732 101.617 81.4166 98.4795 66.674L103.031 65.6912C105.703 78.1873 114.666 83.0391 115.054 83.2419L112.91 87.4072Z" fill="#503326"/>
<path d="M102.951 68.6502C104.01 67.2724 103.756 65.2934 102.385 64.2298C101.013 63.1662 99.0422 63.4209 97.9832 64.7986C96.9242 66.1763 97.1778 68.1554 98.5496 69.219C99.9214 70.2826 101.892 70.0279 102.951 68.6502Z" fill="#503326"/>
<path d="M100.468 72.2121C99.5981 72.2121 98.7437 72.0093 97.9515 71.588C96.6622 70.9172 95.6991 69.7784 95.2641 68.3743C94.8292 66.9703 94.9379 65.4882 95.6214 64.1933C97.0195 61.51 100.328 60.4648 103 61.8533C104.289 62.5241 105.237 63.6629 105.687 65.067C106.122 66.471 105.998 67.9531 105.33 69.2479C104.647 70.5584 103.513 71.51 102.115 71.9625C101.571 72.1341 101.027 72.2121 100.468 72.2121ZM100.468 65.9094C100.173 65.9094 99.8932 66.0654 99.7534 66.3462C99.6136 66.6114 99.6602 66.8455 99.7068 66.9703C99.7379 67.0951 99.8466 67.3135 100.111 67.4383C100.375 67.5787 100.608 67.5319 100.732 67.4851C100.841 67.4539 101.058 67.3603 101.182 67.0951C101.322 66.8299 101.276 66.5958 101.229 66.471C101.198 66.3462 101.089 66.1278 100.825 66.003C100.732 65.9406 100.592 65.9094 100.468 65.9094Z" fill="#503326"/>
<path d="M217.399 67.7173C218.104 66.1274 217.392 64.2645 215.809 63.5563C214.226 62.8481 212.371 63.5629 211.666 65.1528C210.961 66.7426 211.673 68.6056 213.256 69.3138C214.839 70.022 216.694 69.3072 217.399 67.7173Z" fill="#503326"/>
<path d="M214.532 71.9314C214.02 71.9314 213.507 71.8534 213.01 71.713C211.612 71.3074 210.447 70.3714 209.732 69.0921C209.033 67.8129 208.862 66.3308 209.266 64.9111C209.67 63.4915 210.602 62.337 211.876 61.6194C213.15 60.9174 214.641 60.7458 216.039 61.1514C217.437 61.557 218.602 62.493 219.301 63.7723C220.016 65.0515 220.171 66.5336 219.767 67.9533C219.363 69.3573 218.431 70.5274 217.157 71.245C216.35 71.6974 215.449 71.9314 214.532 71.9314ZM214.532 65.6288C214.423 65.6288 214.284 65.66 214.144 65.738C213.755 65.9564 213.616 66.4556 213.833 66.8456C213.973 67.0952 214.19 67.2044 214.315 67.2356C214.439 67.2668 214.672 67.3136 214.92 67.1732C215.185 67.0328 215.278 66.8144 215.309 66.6896C215.34 66.5648 215.386 66.3308 215.247 66.0812C215.107 65.8316 214.889 65.7224 214.765 65.6912C214.703 65.6444 214.625 65.6288 214.532 65.6288Z" fill="#503326"/>
<path d="M140.514 78.6397C139.939 78.6397 139.364 78.3589 139.023 77.8441C138.479 77.0172 138.696 75.9096 139.52 75.3636L141.228 74.2247L139.52 73.0859C138.712 72.5086 138.494 71.401 139.038 70.5742C139.582 69.7473 140.7 69.5289 141.508 70.0749L145.438 72.7114C145.935 73.0391 146.23 73.6007 146.23 74.2091C146.23 74.8175 145.935 75.3636 145.438 75.7068L141.492 78.3433C141.197 78.5305 140.856 78.6397 140.514 78.6397Z" fill="white"/>
<path d="M176.366 78.6397C176.024 78.6397 175.682 78.5461 175.371 78.3433L171.441 75.7068C170.944 75.3792 170.649 74.8175 170.649 74.2091C170.649 73.6007 170.944 73.0547 171.441 72.7114L175.387 70.0749C176.21 69.5289 177.313 69.7473 177.857 70.5742C178.401 71.401 178.183 72.5086 177.36 73.0547L175.651 74.1935L177.36 75.3324C178.183 75.8784 178.401 77.0016 177.857 77.8128C177.5 78.3589 176.94 78.6397 176.366 78.6397Z" fill="white"/>
</g>
<g clip-path="url(#clip1)">
<path d="M76.2565 95.8123H72.7434V119H76.2565V95.8123Z" fill="#34A853"/>
<path d="M74.5 96.6957C74.5 99.2876 70.8112 101.391 66.2559 101.391C61.7005 101.391 58 98.4391 58 95.8472C58 93.2553 61.6888 92 66.2441 92C70.7995 92 74.5 94.1037 74.5 96.6957Z" fill="#34A853"/>
<path d="M91 95.8589C91 98.4508 87.2995 101.403 82.7441 101.403C78.1888 101.403 74.5 99.2876 74.5 96.6841C74.5 94.0922 78.2005 91.9884 82.7559 92C87.3112 92.0117 91 93.2669 91 95.8589Z" fill="#34A853"/>
</g>
<g clip-path="url(#clip2)">
<path d="M239.257 47.8123H235.743V79H239.257V47.8123Z" fill="#34A853"/>
<path d="M237.5 48.6957C237.5 51.2876 233.811 53.3913 229.256 53.3913C224.7 53.3913 221 50.4391 221 47.8472C221 45.2553 224.689 44 229.244 44C233.8 44 237.5 46.1037 237.5 48.6957Z" fill="#34A853"/>
<path d="M254 47.8589C254 50.4508 250.3 53.403 245.744 53.403C241.189 53.403 237.5 51.2876 237.5 48.6841C237.5 46.0922 241.2 43.9884 245.756 44C250.311 44.0117 254 45.2669 254 47.8589Z" fill="#34A853"/>
</g>
<g clip-path="url(#clip3)">
<path d="M264.257 88.8123H260.743V120H264.257V88.8123Z" fill="#34A853"/>
<path d="M262.5 89.6957C262.5 92.2876 258.811 94.3913 254.256 94.3913C249.7 94.3913 246 91.4391 246 88.8472C246 86.2553 249.689 85 254.244 85C258.8 85 262.5 87.1037 262.5 89.6957Z" fill="#34A853"/>
<path d="M279 88.8589C279 91.4508 275.3 94.403 270.744 94.403C266.189 94.403 262.5 92.2876 262.5 89.6841C262.5 87.0922 266.2 84.9884 270.756 85C275.311 85.0117 279 86.2669 279 88.8589Z" fill="#34A853"/>
</g>
<path d="M73.5359 19.874L72.7299 18.132H74.6539C75.1565 19.224 75.5812 20.1687 75.9279 20.966C76.2745 21.746 76.5692 22.4307 76.8119 23.02C77.0545 23.592 77.2539 24.0773 77.4099 24.476C77.5659 24.8747 77.6959 25.2127 77.7999 25.49C77.9039 24.97 78.0252 24.502 78.1639 24.086C78.3199 23.6527 78.5105 23.176 78.7359 22.656C78.9612 22.1187 79.2299 21.5033 79.5419 20.81C79.8712 20.0993 80.2612 19.2067 80.7119 18.132H82.9479L77.7999 29.65C77.4879 29.0087 77.1932 28.376 76.9159 27.752C76.6559 27.1107 76.3959 26.478 76.1359 25.854C75.8932 25.23 75.6332 24.606 75.3559 23.982C75.0959 23.358 74.8099 22.7167 74.4979 22.058L71.1959 29.65L66.2819 18.132H68.5179C68.9685 19.2067 69.3412 20.0993 69.6359 20.81C69.9305 21.5207 70.1732 22.136 70.3639 22.656C70.5719 23.176 70.7365 23.6527 70.8579 24.086C70.9792 24.502 71.0919 24.97 71.1959 25.49C71.2652 25.282 71.3432 25.048 71.4299 24.788C71.5339 24.528 71.6639 24.1987 71.8199 23.8C71.9932 23.384 72.2185 22.864 72.4959 22.24C72.7732 21.616 73.1199 20.8273 73.5359 19.874ZM93.4935 27.726C92.9735 28.194 92.3408 28.5667 91.5955 28.844C90.8502 29.1213 90.0875 29.26 89.3075 29.26C88.5102 29.26 87.7562 29.1127 87.0455 28.818C86.3522 28.506 85.7455 28.0987 85.2255 27.596C84.7055 27.076 84.2895 26.4693 83.9775 25.776C83.6828 25.0827 83.5355 24.346 83.5355 23.566C83.5355 22.786 83.6828 22.0493 83.9775 21.356C84.2895 20.6627 84.7055 20.056 85.2255 19.536C85.7455 19.016 86.3435 18.6087 87.0195 18.314C87.7128 18.002 88.4495 17.846 89.2295 17.846C90.4602 17.846 91.5262 18.2187 92.4275 18.964C93.3462 19.692 94.0048 20.654 94.4035 21.85C93.8662 22.0407 93.2508 22.2747 92.5575 22.552C91.8642 22.8293 91.1448 23.124 90.3995 23.436C89.6542 23.7307 88.9088 24.0253 88.1635 24.32C87.4182 24.6147 86.7248 24.8833 86.0835 25.126C86.3782 25.7153 86.8028 26.192 87.3575 26.556C87.9295 26.9027 88.5622 27.076 89.2555 27.076C89.7235 27.076 90.1915 26.9893 90.6595 26.816C91.1448 26.6427 91.5348 26.4087 91.8295 26.114L93.4935 27.726ZM91.6215 21.33C91.4135 20.8967 91.0842 20.576 90.6335 20.368C90.1828 20.1427 89.7235 20.03 89.2555 20.03C88.7528 20.03 88.2848 20.1253 87.8515 20.316C87.4355 20.5067 87.0715 20.7667 86.7595 21.096C86.4475 21.408 86.1962 21.772 86.0055 22.188C85.8322 22.604 85.7455 23.0287 85.7455 23.462C85.7455 23.5487 85.7455 23.6093 85.7455 23.644C85.7628 23.6787 85.7715 23.7047 85.7715 23.722C86.2222 23.5487 86.7075 23.358 87.2275 23.15C87.7648 22.9247 88.2935 22.708 88.8135 22.5C89.3335 22.2747 89.8362 22.0667 90.3215 21.876C90.8068 21.668 91.2402 21.486 91.6215 21.33ZM98.5606 29H96.3506V8.798H98.5606V29ZM103.943 29H101.733V8.798H103.943V29ZM114.37 26.322C114.613 26.6167 114.838 26.9027 115.046 27.18C115.272 27.44 115.497 27.7173 115.722 28.012C115.237 28.3933 114.691 28.6967 114.084 28.922C113.478 29.1473 112.819 29.26 112.108 29.26C111.311 29.26 110.557 29.1127 109.846 28.818C109.153 28.506 108.546 28.09 108.026 27.57C107.506 27.05 107.09 26.4433 106.778 25.75C106.484 25.0567 106.336 24.32 106.336 23.54C106.336 22.76 106.484 22.0233 106.778 21.33C107.09 20.6367 107.506 20.0387 108.026 19.536C108.546 19.016 109.153 18.6087 109.846 18.314C110.557 18.002 111.311 17.846 112.108 17.846C112.836 17.846 113.504 17.9587 114.11 18.184C114.734 18.4093 115.298 18.7127 115.8 19.094L114.37 20.784C114.076 20.5413 113.738 20.3593 113.356 20.238C112.975 20.0993 112.559 20.03 112.108 20.03C111.588 20.03 111.112 20.1253 110.678 20.316C110.245 20.4893 109.864 20.732 109.534 21.044C109.222 21.356 108.98 21.7287 108.806 22.162C108.633 22.578 108.546 23.0373 108.546 23.54C108.546 24.0427 108.633 24.5107 108.806 24.944C108.98 25.36 109.222 25.7327 109.534 26.062C109.864 26.374 110.245 26.6253 110.678 26.816C111.112 26.9893 111.588 27.076 112.108 27.076C112.559 27.076 112.975 27.0153 113.356 26.894C113.738 26.7553 114.076 26.5647 114.37 26.322ZM116.772 23.54C116.772 22.76 116.919 22.0233 117.214 21.33C117.526 20.6367 117.942 20.0387 118.462 19.536C118.982 19.016 119.588 18.6087 120.282 18.314C120.992 18.002 121.755 17.846 122.57 17.846C123.384 17.846 124.138 18.002 124.832 18.314C125.542 18.6087 126.149 19.016 126.652 19.536C127.172 20.0387 127.57 20.6367 127.848 21.33C128.142 22.0233 128.29 22.76 128.29 23.54C128.29 24.32 128.142 25.0567 127.848 25.75C127.57 26.4433 127.172 27.05 126.652 27.57C126.149 28.09 125.542 28.506 124.832 28.818C124.138 29.1127 123.376 29.26 122.544 29.26C121.746 29.26 120.992 29.1213 120.282 28.844C119.588 28.5667 118.982 28.1767 118.462 27.674C117.942 27.1713 117.526 26.5733 117.214 25.88C116.919 25.1693 116.772 24.3893 116.772 23.54ZM118.982 23.566C118.982 24.0513 119.068 24.5107 119.242 24.944C119.432 25.36 119.684 25.7327 119.996 26.062C120.325 26.374 120.698 26.6253 121.114 26.816C121.547 26.9893 122.006 27.076 122.492 27.076C122.977 27.076 123.436 26.9893 123.87 26.816C124.303 26.6253 124.676 26.374 124.988 26.062C125.317 25.7327 125.577 25.36 125.768 24.944C125.958 24.5107 126.054 24.0513 126.054 23.566C126.054 23.0807 125.958 22.6213 125.768 22.188C125.577 21.7547 125.317 21.382 124.988 21.07C124.676 20.7407 124.303 20.4893 123.87 20.316C123.436 20.1253 122.977 20.03 122.492 20.03C122.006 20.03 121.547 20.1253 121.114 20.316C120.698 20.4893 120.325 20.7407 119.996 21.07C119.684 21.382 119.432 21.7547 119.242 22.188C119.068 22.6213 118.982 23.0807 118.982 23.566ZM130.653 18.132H132.603C132.637 18.6693 132.663 19.1633 132.681 19.614C132.715 20.0473 132.75 20.4807 132.785 20.914C133.183 19.978 133.703 19.2413 134.345 18.704C135.003 18.1493 135.879 17.8633 136.971 17.846C138.028 17.846 138.877 18.1147 139.519 18.652C140.16 19.1893 140.533 19.8913 140.637 20.758C141.07 19.874 141.599 19.172 142.223 18.652C142.864 18.132 143.722 17.8633 144.797 17.846C145.923 17.846 146.807 18.1493 147.449 18.756C148.107 19.3627 148.454 20.1427 148.489 21.096V29H146.253V22.11C146.218 21.5553 146.027 21.0873 145.681 20.706C145.351 20.3073 144.805 20.0907 144.043 20.056C143.003 20.056 142.188 20.394 141.599 21.07C141.009 21.7287 140.697 22.578 140.663 23.618V29H138.453V22.11C138.418 21.5553 138.219 21.0873 137.855 20.706C137.508 20.3073 136.971 20.0907 136.243 20.056C135.723 20.056 135.255 20.1513 134.839 20.342C134.423 20.5153 134.067 20.758 133.773 21.07C133.478 21.382 133.253 21.7547 133.097 22.188C132.941 22.6213 132.863 23.098 132.863 23.618V29H130.653V18.132ZM160.702 27.726C160.182 28.194 159.55 28.5667 158.804 28.844C158.059 29.1213 157.296 29.26 156.516 29.26C155.719 29.26 154.965 29.1127 154.254 28.818C153.561 28.506 152.954 28.0987 152.434 27.596C151.914 27.076 151.498 26.4693 151.186 25.776C150.892 25.0827 150.744 24.346 150.744 23.566C150.744 22.786 150.892 22.0493 151.186 21.356C151.498 20.6627 151.914 20.056 152.434 19.536C152.954 19.016 153.552 18.6087 154.228 18.314C154.922 18.002 155.658 17.846 156.438 17.846C157.669 17.846 158.735 18.2187 159.636 18.964C160.555 19.692 161.214 20.654 161.612 21.85C161.075 22.0407 160.46 22.2747 159.766 22.552C159.073 22.8293 158.354 23.124 157.608 23.436C156.863 23.7307 156.118 24.0253 155.372 24.32C154.627 24.6147 153.934 24.8833 153.292 25.126C153.587 25.7153 154.012 26.192 154.566 26.556C155.138 26.9027 155.771 27.076 156.464 27.076C156.932 27.076 157.4 26.9893 157.868 26.816C158.354 26.6427 158.744 26.4087 159.038 26.114L160.702 27.726ZM158.83 21.33C158.622 20.8967 158.293 20.576 157.842 20.368C157.392 20.1427 156.932 20.03 156.464 20.03C155.962 20.03 155.494 20.1253 155.06 20.316C154.644 20.5067 154.28 20.7667 153.968 21.096C153.656 21.408 153.405 21.772 153.214 22.188C153.041 22.604 152.954 23.0287 152.954 23.462C152.954 23.5487 152.954 23.6093 152.954 23.644C152.972 23.6787 152.98 23.7047 152.98 23.722C153.431 23.5487 153.916 23.358 154.436 23.15C154.974 22.9247 155.502 22.708 156.022 22.5C156.542 22.2747 157.045 22.0667 157.53 21.876C158.016 21.668 158.449 21.486 158.83 21.33ZM170.462 13.348H172.672V18.158H175.584V20.134H172.672V29H170.462V20.134H168.512V18.158H170.462V13.348ZM176.44 23.54C176.44 22.76 176.587 22.0233 176.882 21.33C177.194 20.6367 177.61 20.0387 178.13 19.536C178.65 19.016 179.256 18.6087 179.95 18.314C180.66 18.002 181.423 17.846 182.238 17.846C183.052 17.846 183.806 18.002 184.5 18.314C185.21 18.6087 185.817 19.016 186.32 19.536C186.84 20.0387 187.238 20.6367 187.516 21.33C187.81 22.0233 187.958 22.76 187.958 23.54C187.958 24.32 187.81 25.0567 187.516 25.75C187.238 26.4433 186.84 27.05 186.32 27.57C185.817 28.09 185.21 28.506 184.5 28.818C183.806 29.1127 183.044 29.26 182.212 29.26C181.414 29.26 180.66 29.1213 179.95 28.844C179.256 28.5667 178.65 28.1767 178.13 27.674C177.61 27.1713 177.194 26.5733 176.882 25.88C176.587 25.1693 176.44 24.3893 176.44 23.54ZM178.65 23.566C178.65 24.0513 178.736 24.5107 178.91 24.944C179.1 25.36 179.352 25.7327 179.664 26.062C179.993 26.374 180.366 26.6253 180.782 26.816C181.215 26.9893 181.674 27.076 182.16 27.076C182.645 27.076 183.104 26.9893 183.538 26.816C183.971 26.6253 184.344 26.374 184.656 26.062C184.985 25.7327 185.245 25.36 185.436 24.944C185.626 24.5107 185.722 24.0513 185.722 23.566C185.722 23.0807 185.626 22.6213 185.436 22.188C185.245 21.7547 184.985 21.382 184.656 21.07C184.344 20.7407 183.971 20.4893 183.538 20.316C183.104 20.1253 182.645 20.03 182.16 20.03C181.674 20.03 181.215 20.1253 180.782 20.316C180.366 20.4893 179.993 20.7407 179.664 21.07C179.352 21.382 179.1 21.7547 178.91 22.188C178.736 22.6213 178.65 23.0807 178.65 23.566ZM202.371 19.094L201.201 20.654C201.184 20.6367 201.123 20.5933 201.019 20.524C200.915 20.4547 200.776 20.3853 200.603 20.316C200.447 20.2467 200.256 20.186 200.031 20.134C199.823 20.0647 199.606 20.03 199.381 20.03C199.086 20.03 198.792 20.0993 198.497 20.238C198.22 20.3767 198.081 20.6367 198.081 21.018C198.081 21.3473 198.194 21.616 198.419 21.824C198.662 22.032 198.956 22.2227 199.303 22.396C199.65 22.552 200.022 22.7167 200.421 22.89C200.837 23.0633 201.218 23.28 201.565 23.54C201.912 23.7827 202.198 24.0947 202.423 24.476C202.666 24.84 202.787 25.308 202.787 25.88C202.787 26.8507 202.449 27.6567 201.773 28.298C201.114 28.922 200.204 29.234 199.043 29.234C198.367 29.234 197.7 29.1213 197.041 28.896C196.4 28.6533 195.88 28.3067 195.481 27.856C195.602 27.7347 195.732 27.5787 195.871 27.388C196.027 27.1973 196.174 27.0153 196.313 26.842C196.469 26.6687 196.59 26.53 196.677 26.426C196.781 26.3047 196.842 26.244 196.859 26.244C196.859 26.2613 196.92 26.3133 197.041 26.4C197.18 26.4867 197.353 26.582 197.561 26.686C197.769 26.7727 198.003 26.8593 198.263 26.946C198.523 27.0153 198.783 27.05 199.043 27.05C199.459 27.05 199.814 26.946 200.109 26.738C200.404 26.53 200.551 26.2527 200.551 25.906C200.551 25.594 200.43 25.3513 200.187 25.178C199.962 24.9873 199.676 24.814 199.329 24.658C198.982 24.502 198.601 24.346 198.185 24.19C197.769 24.0167 197.388 23.8 197.041 23.54C196.694 23.28 196.4 22.9593 196.157 22.578C195.932 22.1793 195.819 21.668 195.819 21.044C195.819 20.4547 195.923 19.9607 196.131 19.562C196.356 19.1633 196.634 18.8427 196.963 18.6C197.31 18.34 197.691 18.158 198.107 18.054C198.523 17.9327 198.922 17.872 199.303 17.872C199.806 17.872 200.343 17.976 200.915 18.184C201.487 18.392 201.972 18.6953 202.371 19.094ZM204.863 13.972C204.863 13.556 205.01 13.2093 205.305 12.932C205.617 12.6547 205.946 12.516 206.293 12.516C206.64 12.516 206.96 12.6547 207.255 12.932C207.55 13.2093 207.697 13.556 207.697 13.972C207.697 14.388 207.55 14.7347 207.255 15.012C206.96 15.272 206.64 15.402 206.293 15.402C205.946 15.402 205.617 15.272 205.305 15.012C205.01 14.7347 204.863 14.388 204.863 13.972ZM207.359 29H205.149V18.132H207.359V29ZM216.461 20.706C215.976 20.706 215.508 20.7753 215.057 20.914C214.606 21.0353 214.199 21.226 213.835 21.486C213.488 21.746 213.211 22.0753 213.003 22.474C212.795 22.8553 212.691 23.2973 212.691 23.8V29H210.481V18.132H212.431C212.466 18.6693 212.492 19.1633 212.509 19.614C212.544 20.0473 212.578 20.4807 212.613 20.914C212.838 20.446 213.133 20.0213 213.497 19.64C213.861 19.2587 214.251 18.938 214.667 18.678C215.083 18.418 215.49 18.2187 215.889 18.08C216.288 17.924 216.643 17.846 216.955 17.846L216.461 20.706ZM217.598 23.54C217.598 22.76 217.745 22.0233 218.04 21.33C218.352 20.6367 218.768 20.0387 219.288 19.536C219.808 19.016 220.415 18.6087 221.108 18.314C221.819 18.002 222.581 17.846 223.396 17.846C224.211 17.846 224.965 18.002 225.658 18.314C226.369 18.6087 226.975 19.016 227.478 19.536C227.998 20.0387 228.397 20.6367 228.674 21.33C228.969 22.0233 229.116 22.76 229.116 23.54C229.116 24.32 228.969 25.0567 228.674 25.75C228.397 26.4433 227.998 27.05 227.478 27.57C226.975 28.09 226.369 28.506 225.658 28.818C224.965 29.1127 224.202 29.26 223.37 29.26C222.573 29.26 221.819 29.1213 221.108 28.844C220.415 28.5667 219.808 28.1767 219.288 27.674C218.768 27.1713 218.352 26.5733 218.04 25.88C217.745 25.1693 217.598 24.3893 217.598 23.54ZM219.808 23.566C219.808 24.0513 219.895 24.5107 220.068 24.944C220.259 25.36 220.51 25.7327 220.822 26.062C221.151 26.374 221.524 26.6253 221.94 26.816C222.373 26.9893 222.833 27.076 223.318 27.076C223.803 27.076 224.263 26.9893 224.696 26.816C225.129 26.6253 225.502 26.374 225.814 26.062C226.143 25.7327 226.403 25.36 226.594 24.944C226.785 24.5107 226.88 24.0513 226.88 23.566C226.88 23.0807 226.785 22.6213 226.594 22.188C226.403 21.7547 226.143 21.382 225.814 21.07C225.502 20.7407 225.129 20.4893 224.696 20.316C224.263 20.1253 223.803 20.03 223.318 20.03C222.833 20.03 222.373 20.1253 221.94 20.316C221.524 20.4893 221.151 20.7407 220.822 21.07C220.51 21.382 220.259 21.7547 220.068 22.188C219.895 22.6213 219.808 23.0807 219.808 23.566ZM230.725 23.54C230.725 22.76 230.872 22.0233 231.167 21.33C231.479 20.6367 231.895 20.0387 232.415 19.536C232.935 19.016 233.542 18.6087 234.235 18.314C234.946 18.002 235.708 17.846 236.523 17.846C237.338 17.846 238.092 18.002 238.785 18.314C239.496 18.6087 240.102 19.016 240.605 19.536C241.125 20.0387 241.524 20.6367 241.801 21.33C242.096 22.0233 242.243 22.76 242.243 23.54C242.243 24.32 242.096 25.0567 241.801 25.75C241.524 26.4433 241.125 27.05 240.605 27.57C240.102 28.09 239.496 28.506 238.785 28.818C238.092 29.1127 237.329 29.26 236.497 29.26C235.7 29.26 234.946 29.1213 234.235 28.844C233.542 28.5667 232.935 28.1767 232.415 27.674C231.895 27.1713 231.479 26.5733 231.167 25.88C230.872 25.1693 230.725 24.3893 230.725 23.54ZM232.935 23.566C232.935 24.0513 233.022 24.5107 233.195 24.944C233.386 25.36 233.637 25.7327 233.949 26.062C234.278 26.374 234.651 26.6253 235.067 26.816C235.5 26.9893 235.96 27.076 236.445 27.076C236.93 27.076 237.39 26.9893 237.823 26.816C238.256 26.6253 238.629 26.374 238.941 26.062C239.27 25.7327 239.53 25.36 239.721 24.944C239.912 24.5107 240.007 24.0513 240.007 23.566C240.007 23.0807 239.912 22.6213 239.721 22.188C239.53 21.7547 239.27 21.382 238.941 21.07C238.629 20.7407 238.256 20.4893 237.823 20.316C237.39 20.1253 236.93 20.03 236.445 20.03C235.96 20.03 235.5 20.1253 235.067 20.316C234.651 20.4893 234.278 20.7407 233.949 21.07C233.637 21.382 233.386 21.7547 233.195 22.188C233.022 22.6213 232.935 23.0807 232.935 23.566ZM245.308 9.24H247.7V24.632H245.308V9.24ZM246.504 29.104C246.14 29.104 245.802 28.9653 245.49 28.688C245.195 28.4107 245.048 28.0553 245.048 27.622C245.048 27.1887 245.195 26.8333 245.49 26.556C245.802 26.2787 246.14 26.14 246.504 26.14C246.868 26.14 247.197 26.2787 247.492 26.556C247.787 26.8333 247.934 27.1887 247.934 27.622C247.934 28.0553 247.787 28.4107 247.492 28.688C247.197 28.9653 246.868 29.104 246.504 29.104Z" fill="#6F4C3D"/>
<defs>
<clipPath id="clip0">
<rect width="125" height="70" fill="white" transform="translate(95 58)"/>
</clipPath>
<clipPath id="clip1">
<rect width="33" height="27" fill="white" transform="translate(58 92)"/>
</clipPath>
<clipPath id="clip2">
<rect width="33" height="27" fill="white" transform="translate(221 44)"/>
</clipPath>
<clipPath id="clip3">
<rect width="33" height="27" fill="white" transform="translate(246 85)"/>
</clipPath>
</defs>
</svg>
