<svg width="130" height="31" viewBox="0 0 130 31" fill="none" xmlns="http://www.w3.org/2000/svg">
<path d="M6.384 11.792H9.424V10.048H1.168V11.792H4.24V12.608C4.24 15.12 3.04 17.824 0.576 18.928L1.776 20.608C3.504 19.824 4.688 18.208 5.344 16.288C6 18.064 7.168 19.504 8.88 20.24L10.032 18.576C7.568 17.552 6.384 15.008 6.384 12.608V11.792ZM10.784 8.64V23.376H12.896V8.64H10.784ZM19.0548 19.472H25.0548V21.552H19.0548V19.472ZM16.9748 23.2H27.1188V17.824H16.9748V23.2ZM26.8468 14.608C27.1828 12.912 27.1828 11.664 27.1828 10.48V9.296H17.0548V10.976H25.1028C25.1028 12 25.0548 13.136 24.7508 14.608H15.4068V16.288H28.7508V14.608H26.8468ZM39.7858 18.288H36.8258V15.024H39.7858V18.288ZM39.7858 13.376H36.8258V9.808H34.7298V19.968H41.8818V9.808H39.7858V13.376ZM47.9618 14.128H45.8178V8.656H43.7058V23.376H45.8178V15.888H47.9618V14.128ZM56.7125 20.032V17.84H61.1765V16.144H52.6325V14.496H60.8405V9.584H50.5205V11.264H58.7605V12.848H50.5365V17.84H54.6005V20.032H49.0005V21.76H62.3445V20.032H56.7125ZM71.4915 20.64H79.6195V16.496H69.3635V18.128H77.5075V19.088H69.3795V23.264H79.9875V21.632H71.4915V20.64ZM79.3795 13.824C79.6515 12.368 79.6515 11.168 79.6515 10.224V9.216H69.5235V10.896H77.5715C77.5555 11.712 77.5075 12.64 77.2675 13.824H67.8755V15.488H81.2195V13.824H79.3795ZM96.0023 15.808C94.0023 14.944 93.2343 13.152 93.2343 11.36V9.696H91.1063V11.36C91.1063 12.816 90.6103 14.384 89.2503 15.408C87.8903 14.384 87.3783 12.8 87.3783 11.36V9.696H85.2823V11.36C85.2823 13.088 84.4983 14.928 82.5143 15.808L83.6023 17.36C84.9463 16.784 85.8103 15.744 86.3223 14.48C86.8343 15.84 87.7623 16.992 89.2503 17.584C90.7383 16.992 91.6663 15.84 92.1783 14.496C92.6903 15.76 93.5543 16.784 94.9143 17.36L96.0023 15.808ZM82.5943 21.568H95.9223V19.856H82.5943V21.568ZM98.129 10.16V11.84H103.041C102.737 15.104 101.105 17.408 97.345 19.216L98.449 20.88C103.681 18.352 105.201 14.672 105.201 10.16H98.129ZM107.457 8.624V23.36H109.585V8.624H107.457Z" fill="#6F4C3D"/>
<path d="M122 22L128 15.5L122 9" stroke="#6F4C3D" stroke-width="2"/>
</svg>
