<svg width="24" height="24" viewBox="0 0 24 24" fill="none" xmlns="http://www.w3.org/2000/svg">
<path d="M15.1674 2.6083C11.6923 -0.869434 6.06335 -0.869434 2.60633 2.6083C-0.868779 6.08604 -0.868779 11.7192 2.60633 15.1789C5.86425 18.4392 10.9864 18.6023 14.4796 15.7404C14.4977 15.7585 14.5158 15.7947 14.5339 15.8128L22.4434 23.7283C22.8054 24.0906 23.3665 24.0906 23.7285 23.7283C24.0905 23.366 24.0905 22.8045 23.7285 22.4423L15.8009 14.5449C15.7828 14.5087 15.7647 14.5087 15.7285 14.4906C18.5882 10.9947 18.4253 5.86868 15.1674 2.6083ZM13.8824 13.8928C11.1312 16.646 6.64253 16.646 3.8733 13.8928C1.12217 11.1396 1.12217 6.64755 3.8733 3.87623C6.62443 1.12302 11.1131 1.12302 13.8824 3.87623C16.6516 6.64755 16.6516 11.1396 13.8824 13.8928Z" fill="#333333"/>
</svg>
